<svg width="210" height="892" viewBox="0 0 210 892" fill="none" xmlns="http://www.w3.org/2000/svg">
<rect width="210" height="892" fill="#D9D9D9"/>
<rect width="210" height="892" fill="white"/>
<path d="M0 0H128L0 194V0Z" fill="#FF047D"/>
<path d="M210 892H82L210 698L210 892Z" fill="#FF047D"/>
<path d="M77.62 651.451C50.44 646.231 37.48 655.771 37.48 680.971L37.48 707.611C37.48 709.411 39.1 711.211 39.1 711.211C39.1 711.211 40.54 712.831 42.7 713.371L160.78 736.231C162.94 736.591 164.38 735.691 164.38 735.691C164.38 735.691 165.82 734.611 166 732.631V705.991C166 680.611 153.22 666.211 125.68 660.811L77.62 651.451ZM83.2 672.511L120.46 679.891C140.44 683.671 147.64 690.151 147.64 704.011V709.051C147.64 711.031 146.2 712.291 146.2 712.291C146.2 712.291 144.76 713.551 143.5 713.011L60.7 696.991C58.54 696.631 57.28 695.011 57.28 695.011C57.28 695.011 55.84 693.571 55.84 691.231V686.191C55.84 672.331 62.86 668.551 83.2 672.511ZM42.7 566.484C40.18 566.124 38.92 566.844 38.92 566.844C38.92 566.844 37.48 567.924 37.48 570.624L37.48 618.504C37.48 620.484 39.28 622.464 39.28 622.464C39.28 622.464 40.9 624.264 42.7 624.624L160.96 647.664C162.94 648.384 164.56 646.944 164.56 646.944C164.56 646.944 166 645.684 166 643.524V595.644C166 593.304 164.56 591.504 164.56 591.504C164.56 591.504 162.94 589.704 160.96 589.344L153.04 587.904C150.7 587.364 149.26 588.624 149.26 588.624C149.26 588.624 147.64 589.884 147.64 592.044V620.304C147.64 622.644 146.2 623.544 146.2 623.544C146.2 623.544 144.94 624.624 142.42 624.084L113.26 618.504C110.92 617.964 109.48 616.164 109.48 616.164C109.48 616.164 108.04 614.544 107.86 612.564V588.444C108.04 586.464 106.42 584.484 106.42 584.484C106.42 584.484 104.8 582.504 102.82 582.324L94.72 580.884C92.38 580.344 90.94 581.244 90.94 581.244C90.94 581.244 89.5 582.504 89.5 584.844V608.784C89.5 610.944 88.06 612.204 88.06 612.204C88.06 612.204 86.62 613.464 84.46 612.924L61.78 608.604C58.9 608.064 57.28 606.264 57.28 606.264C57.28 606.264 55.84 604.284 55.84 602.304V574.044C55.84 571.704 54.58 570.084 54.58 570.084C54.58 570.084 53.14 568.644 50.8 568.104L42.7 566.484ZM62.5 480.034C44.86 482.734 35.68 492.634 35.68 509.374C35.68 529.174 48.46 545.554 67.18 549.154C75.1 550.774 82.48 549.694 88.6 546.274C92.56 543.934 96.16 540.874 99.4 537.454C101.02 535.834 104.26 532.234 109.66 526.474C121.54 513.874 126.76 510.994 134.86 512.614C143.5 514.234 149.44 521.254 149.44 529.894C149.44 539.254 143.32 544.474 131.62 545.374C130 545.554 128.74 545.014 127.84 546.814C127.84 546.814 127.12 548.614 128.2 552.214L130.36 559.954C131.26 563.014 132.7 564.094 132.7 564.094C134.14 565.354 135.04 565.714 136.66 565.714C157.72 564.814 167.98 554.194 167.98 533.494C167.98 512.614 154.84 495.694 135.4 491.914C126.76 490.294 118.12 491.554 111.64 495.694C106.6 498.754 103.36 502.354 94.54 511.714L87.52 519.094C79.96 527.194 74.2 529.894 67.18 528.454C59.62 527.014 54.4 520.534 54.22 513.334C54.04 506.134 58.9 501.814 68.26 500.374C69.88 500.014 70.78 499.834 71.5 498.574C71.5 498.574 72.22 497.314 71.86 494.614L69.16 485.074C67.72 481.654 66.28 481.114 66.28 481.114C64.84 480.214 64.12 479.854 62.5 480.034ZM42.34 433.646C40.54 433.286 38.92 434.546 38.92 434.546C38.92 434.546 37.48 435.806 37.48 437.786V447.686C37.48 449.666 38.92 451.466 38.92 451.466C38.92 451.466 40.54 453.266 42.52 453.626L161.14 476.666C162.76 477.026 164.38 475.946 164.38 475.946C164.38 475.946 165.82 474.506 166 472.526V462.806C166 461.006 164.38 459.026 164.38 459.026C164.38 459.026 162.76 457.226 161.14 456.686L42.34 433.646ZM74.2 348.863C49.72 344.543 35.5 354.623 35.5 376.223C35.5 387.923 39.64 398.363 47.56 405.923C55.3 413.303 62.14 416.003 83.2 420.143L118.48 426.983C136.66 430.403 144.4 430.763 152.86 428.063C162.22 425.003 167.98 416.363 167.98 404.303C167.98 398.363 166.72 393.323 163.84 388.463C163.3 387.383 162.04 385.943 162.76 385.583C163.48 385.043 163.66 385.223 164.74 384.503C164.74 384.503 166 383.603 166 381.083V371.363C166.18 369.023 164.56 367.043 164.56 367.043C164.56 367.043 162.94 365.063 160.96 365.063L107.32 354.623C105.34 353.903 103.72 355.343 103.72 355.343C103.72 355.343 102.1 356.783 102.1 358.943V384.863C102.1 387.203 103.36 388.643 103.36 388.643C103.36 388.643 104.8 390.443 107.5 390.983L113.26 392.063C115.6 392.603 117.04 391.343 117.04 391.343C117.04 391.343 118.48 390.263 118.48 388.103V382.163C118.48 380.003 119.74 378.743 119.74 378.743C119.74 378.743 121.18 377.663 123.7 377.843C141.7 381.443 149.44 387.023 149.44 397.463C149.44 408.983 141.52 411.683 118.48 407.183L79.42 399.623C60.88 396.023 54.04 390.803 54.04 380.003C54.04 370.643 61.06 366.683 74.2 368.663C74.92 368.843 76.72 369.023 77.98 367.943C77.98 367.943 79.42 366.863 79.42 364.703V354.983C79.06 352.283 77.8 350.843 77.8 350.843C76.54 349.223 74.56 348.863 74.2 348.863ZM42.52 247.734C40.36 247.014 38.74 248.454 38.74 248.454C38.74 248.454 37.48 249.534 37.48 251.874V261.594C37.48 263.754 38.92 265.554 38.92 265.554C38.92 265.554 40.54 267.354 42.7 267.714L109.66 280.674C111.82 280.854 111.82 281.754 111.82 281.754C111.82 281.754 111.82 282.474 109.66 282.834L42.52 297.954C41.08 298.314 39.28 299.574 39.28 299.574C39.28 299.574 37.48 301.194 37.48 304.074V313.794C37.48 316.134 38.92 317.934 38.92 317.934C38.92 317.934 40.54 319.734 42.7 319.914L160.96 342.954C162.94 343.314 164.56 342.414 164.56 342.414C164.56 342.414 166 341.154 166 338.814V329.094C166 326.754 164.56 325.134 164.56 325.134C164.56 325.134 162.94 323.154 160.78 322.974L93.82 309.834C91.66 309.654 91.66 308.934 91.66 308.934C91.66 308.934 91.66 308.214 93.82 307.674L160.78 292.914C162.58 292.374 164.2 291.114 164.2 291.114C164.2 291.114 166 290.034 166 286.614V276.894C166.18 275.094 164.56 273.114 164.56 273.114C164.56 273.114 162.76 271.134 160.96 270.774L42.52 247.734ZM42.7 210.849C40.72 210.489 39.28 211.749 39.28 211.749C39.28 211.749 37.84 213.009 37.84 214.989L37.84 224.889C37.84 226.869 39.28 228.849 39.28 228.849C39.28 228.849 40.72 230.469 42.88 230.829L122.44 245.049C124.24 245.409 125.86 244.509 125.86 244.509C125.86 244.509 127.3 243.249 127.3 241.629V233.169C127.3 231.549 125.86 229.929 125.86 229.929C125.86 229.929 124.24 228.129 122.44 227.589L42.7 210.849ZM150.7 232.449C148.9 232.089 147.1 233.529 147.1 233.529C147.1 233.529 145.48 234.789 145.48 236.589V244.869C145.48 246.669 147.1 248.649 147.1 248.649C147.1 248.649 148.72 250.809 150.7 251.169L160.96 253.149C162.76 253.509 164.38 252.069 164.38 252.069C164.38 252.069 166 250.629 166 248.829V240.549C166 238.749 164.38 236.949 164.38 236.949C164.38 236.949 162.76 234.789 160.78 234.429L150.7 232.449ZM42.7 181.529C40.72 181.169 39.28 182.429 39.28 182.429C39.28 182.429 37.84 183.689 37.84 185.669V195.569C37.84 197.549 39.28 199.529 39.28 199.529C39.28 199.529 40.72 201.149 42.88 201.509L122.44 215.729C124.24 216.089 125.86 215.189 125.86 215.189C125.86 215.189 127.3 213.929 127.3 212.309V203.849C127.3 202.229 125.86 200.609 125.86 200.609C125.86 200.609 124.24 198.809 122.44 198.269L42.7 181.529ZM150.7 203.129C148.9 202.769 147.1 204.209 147.1 204.209C147.1 204.209 145.48 205.469 145.48 207.269V215.549C145.48 217.349 147.1 219.329 147.1 219.329C147.1 219.329 148.72 221.489 150.7 221.849L160.96 223.829C162.76 224.189 164.38 222.749 164.38 222.749C164.38 222.749 166 221.309 166 219.509V211.229C166 209.429 164.38 207.629 164.38 207.629C164.38 207.629 162.76 205.469 160.78 205.109L150.7 203.129Z" fill="#05C3FB"/>
<ellipse cx="105.042" cy="169.977" rx="33.0275" ry="56.7431" transform="rotate(51.9617 105.042 169.977)" fill="#FF047D"/>
<ellipse cx="105.042" cy="272.977" rx="33.0275" ry="56.7431" transform="rotate(51.9617 105.042 272.977)" fill="#FF047D"/>
<ellipse cx="104.042" cy="622.977" rx="33.0275" ry="56.7431" transform="rotate(51.9617 104.042 622.977)" fill="#FF047D"/>
<ellipse cx="104.042" cy="738.977" rx="33.0275" ry="56.7431" transform="rotate(51.9617 104.042 738.977)" fill="#FF047D"/>
<ellipse cx="104.042" cy="506.977" rx="33.0275" ry="56.7431" transform="rotate(51.9617 104.042 506.977)" fill="#FF047D"/>
<ellipse cx="104.042" cy="389.977" rx="33.0275" ry="56.7431" transform="rotate(51.9617 104.042 389.977)" fill="#FF047D"/>
<path d="M118.8 152.55L113.55 149.95C112.7 150.35 110.2 150.6 108.9 150.6C105.9 150.6 96.3 150.6 93.15 150.6C91.45 150.6 89.15 150.45 87.5 150.25V157.3C89.3 157.15 91.15 157.05 93.2 157.05C96.35 157.05 106.55 157.05 110.45 157.05C110.3 160.65 108.15 173.5 107.35 178H114.7C115.4 173.45 117.6 159.9 118.25 154.85C118.3 154.45 118.55 153.25 118.8 152.55ZM82.05 175.95V183.25C83.7 183.05 85.45 182.95 87 182.95H120.3C121.5 182.95 123.6 183.05 125 183.25V175.95C123.7 176.15 122.1 176.35 120.3 176.35H87C85.45 176.35 83.65 176.25 82.05 175.95Z" fill="white"/>
<path d="M84.05 271.85V279.75C85.95 279.6 89.3 279.45 92.1 279.45C98 279.45 114.45 279.45 119 279.45C121.1 279.45 123.65 279.7 124.85 279.75V271.85C123.5 271.95 121.3 272.2 118.95 272.2C114.5 272.2 98 272.2 92.1 272.2C89.5 272.2 85.9 272 84.05 271.85Z" fill="white"/>
<path d="M84.05 503.85V511.75C85.95 511.6 89.3 511.45 92.1 511.45C98 511.45 114.45 511.45 119 511.45C121.1 511.45 123.65 511.7 124.85 511.75V503.85C123.5 503.95 121.3 504.2 118.95 504.2C114.5 504.2 98 504.2 92.1 504.2C89.5 504.2 85.9 504 84.05 503.85Z" fill="white"/>
<path d="M89.55 600.75C87.25 607.85 83.35 614.95 79.15 619.55C80.2 621 81.85 624.35 82.4 625.75C87.5 620 92.25 610.95 95.2 602.45L89.55 600.75ZM85.5 614.55V647.45H91.2V608.9L91.15 608.85L85.5 614.55ZM106.8 600.8V647.15H112.65V600.8H106.8ZM94.1 609.45V615.15H126.5V609.45H94.1ZM100.2 633.7V639.05H119.35V633.7H100.2ZM114.75 612.65L110.5 613.9C113.25 623.75 117.9 634 123.4 640C124.45 638.4 126.45 636.35 127.85 635.3C122.45 630.2 117.4 621.15 114.75 612.65ZM104.95 612.2C102.3 621.1 97.15 630.5 91.45 635.6C92.75 636.6 94.75 638.7 95.7 640.15C101.65 634.05 106.4 623.75 109.25 613.4L104.95 612.2Z" fill="white"/>
<path d="M105.6 740.5H118.35V745.15H105.6V740.5ZM100.7 736.2V749.45H123.5V736.2H100.7ZM111.6 721.8C114.05 725.8 118.5 730.5 122.75 733.1C123.5 731.45 124.75 729.3 125.8 727.9C121.35 725.8 116.95 721.2 114 716.55H108.8C106.7 720.85 102.15 726.2 97.5 728.85C98.45 730.1 99.65 732.2 100.25 733.65C104.95 730.75 109.3 725.8 111.6 721.8ZM109.25 730.95V740.65C109.25 747.15 108 754.6 97.5 759.4C98.7 760.4 100.4 762.35 101.15 763.6C113.05 757.85 114.55 748.75 114.55 740.7V730.95H109.25ZM115.05 746.85L110.5 748C112.55 754.8 116.15 760.5 121.75 763.45C122.55 762 124.3 759.8 125.55 758.75C120.45 756.6 116.8 752.1 115.05 746.85ZM104.15 728.9V733.5H119.55V728.9H104.15ZM83.2 726V730.5H97.85V726H83.2ZM83.2 733.55V738.1H97.85V733.55H83.2ZM80.4 741.15V745.8H97.5V741.15H80.4ZM88.7 721.2V743.75H93.45V721.2H88.7ZM90.4 748.1C91.35 750.1 92.3 752.8 92.6 754.6L95.1 753.65C94.7 751.95 93.75 749.3 92.7 747.3L90.4 748.1ZM87.15 748.75C87.9 751.35 88.55 754.75 88.65 756.95L91.35 756.35C91.2 754.2 90.5 750.9 89.7 748.3L87.15 748.75ZM83.7 749.05C84.1 752.05 84.25 755.8 84.1 758.35L86.8 758C86.95 755.55 86.75 751.7 86.25 748.75L83.7 749.05ZM80 748C79.8 752.25 79.2 756.5 77.45 759.05L80.45 760.7C82.5 757.9 83.05 753.25 83.3 748.6L80 748ZM80.4 718.4V744.35H85.3V723.25H98.85V718.4H80.4ZM94.9 741.15V742C94.5 753.35 94.05 757.35 93.35 758.35C92.95 758.8 92.6 758.95 92 758.95C91.4 758.95 90.3 758.95 88.95 758.8C89.65 760.05 90.1 762 90.2 763.45C91.95 763.5 93.6 763.45 94.65 763.25C95.85 763.1 96.75 762.65 97.6 761.55C98.8 760 99.3 755.3 99.8 743.15C99.85 742.5 99.85 741.15 99.85 741.15H94.9Z" fill="white"/>
<path d="M119.35 372.15L115.95 373.2C116.95 375.25 117.8 377.95 118.5 380.1L121.95 378.95C121.4 377 120.3 374.1 119.35 372.15ZM124.5 370.55L121.1 371.6C122.1 373.6 123.05 376.25 123.8 378.45L127.2 377.35C126.6 375.45 125.45 372.5 124.5 370.55ZM115.05 389.7V376.65C115.05 374.6 115.25 373 115.35 372H108.25C108.4 372.95 108.5 374.6 108.5 376.65V389.95C108.5 402.2 104.3 406.55 94.6 409.9L100 414.95C112.05 409.65 115.05 402.05 115.05 389.7ZM96.95 372.45H89.85C90.05 373.95 90.15 375.5 90.15 376.95V394.85C90.15 397.1 90 399.1 89.9 400.05H96.9C96.8 399.1 96.65 397.05 96.65 394.85V376.95C96.65 374.95 96.85 373.35 96.95 372.45ZM80.5 381.45V388.25C81.65 388.15 83.4 388.05 85.95 388.05H118.75C121.35 388.05 123.15 388.05 124.25 388.2V381.55C122.85 381.8 121.35 381.9 118.7 381.9H85.95C83.45 381.9 81.4 381.6 80.5 381.45Z" fill="white"/>
</svg>
